<?xml version="1.0" encoding="utf-8"?>
<!-- Generator: Adobe Illustrator 28.0.0, SVG Export Plug-In . SVG Version: 6.00 Build 0)  -->
<svg version="1.1" id="Layer_1" xmlns="http://www.w3.org/2000/svg" xmlns:xlink="http://www.w3.org/1999/xlink" x="0px" y="0px"
	 viewBox="0 0 147 44" style="enable-background:new 0 0 147 44;" xml:space="preserve">
<style type="text/css">
	.st0{fill:#93C020;}
	.st1{fill:#056734;}
</style>
<g>
	<path class="st0" d="M44.82,9.4c-0.07,0.53-0.14,1.07-0.21,1.6c-0.18,1.33-0.35,2.66-0.53,3.99c-0.17,1.31-0.35,2.61-0.52,3.92
		c-0.17,1.31-0.35,2.63-0.52,3.94c-0.16,1.24-0.32,2.48-0.49,3.72c-0.17,1.34-0.35,2.69-0.52,4.03c-0.02,0.18-0.05,0.36-0.07,0.54
		c-0.02,0.16-0.08,0.25-0.27,0.25c-1.58,0-3.16,0-4.75,0c-0.14,0-0.19-0.02-0.16-0.19c0.24-1.79,0.48-3.58,0.72-5.38
		c0.23-1.74,0.46-3.49,0.69-5.23c0.26-1.96,0.52-3.92,0.78-5.87c0.23-1.71,0.45-3.42,0.68-5.13c0.01-0.06,0-0.13,0.01-0.19
		C41.37,9.4,43.1,9.4,44.82,9.4z"/>
	<path class="st0" d="M71.58,19.19c0.21-0.23,0.38-0.42,0.56-0.62c0.69-0.78,1.5-1.36,2.55-1.55c0.81-0.15,1.61-0.1,2.38,0.19
		c0.9,0.33,1.33,1.05,1.45,1.96c0.09,0.73-0.02,1.46-0.11,2.19c-0.15,1.24-0.32,2.48-0.48,3.72c-0.19,1.43-0.38,2.85-0.57,4.27
		c-0.07,0.56-0.15,1.12-0.23,1.68c-0.03,0.26-0.12,0.34-0.38,0.34c-1.53,0-3.07,0-4.6,0.01c-0.19,0-0.22-0.06-0.2-0.23
		c0.17-1.21,0.33-2.42,0.48-3.63c0.2-1.57,0.44-3.14,0.6-4.71c0.04-0.43-0.09-0.72-0.38-0.85c-0.38-0.17-0.76-0.1-1.06,0.2
		c-0.31,0.31-0.41,0.71-0.47,1.12c-0.23,1.76-0.46,3.52-0.69,5.27c-0.12,0.89-0.25,1.78-0.37,2.68c-0.02,0.12-0.05,0.16-0.18,0.16
		c-1.6,0-3.19,0-4.79,0c-0.15,0-0.17-0.05-0.15-0.18c0.22-1.67,0.44-3.33,0.66-5c0.13-1,0.27-2.01,0.4-3.01
		c0.02-0.17,0.03-0.35,0.03-0.52c-0.02-0.66-0.65-1.01-1.24-0.68c-0.3,0.17-0.48,0.44-0.59,0.76c-0.15,0.46-0.17,0.95-0.24,1.42
		c-0.21,1.55-0.41,3.1-0.62,4.65c-0.1,0.78-0.21,1.56-0.3,2.35c-0.02,0.16-0.07,0.22-0.24,0.22c-1.56-0.01-3.12-0.01-4.68,0
		c-0.19,0-0.21-0.05-0.19-0.22c0.2-1.47,0.38-2.95,0.58-4.42c0.2-1.52,0.41-3.04,0.61-4.57c0.19-1.43,0.37-2.85,0.56-4.28
		c0.09-0.68,0.08-0.65,0.72-0.65c1.34,0,2.69,0,4.03-0.01c0.27,0,0.27,0,0.24,0.28c-0.06,0.5-0.12,1-0.18,1.5
		c-0.01,0.05-0.04,0.1,0.02,0.13c0.06,0.03,0.08-0.04,0.11-0.08c0.56-0.7,1.21-1.3,2.04-1.68c0.88-0.41,1.81-0.53,2.77-0.38
		c1.09,0.17,1.74,0.85,2.06,1.87C71.51,18.96,71.54,19.06,71.58,19.19z"/>
	<path class="st1" d="M129.72,31.77c-1.09-0.01-2.16-0.12-3.19-0.52c-1.44-0.56-2.27-1.64-2.62-3.12c-0.26-1.09-0.26-2.19-0.14-3.29
		c0.29-2.68,0.69-5.34,1.03-8.02c0.23-1.81,0.49-3.61,0.74-5.42c0.02-0.13,0.06-0.17,0.19-0.17c1.78,0,3.56,0,5.33,0
		c0.13,0,0.16,0.02,0.14,0.16c-0.27,1.96-0.52,3.93-0.79,5.9c-0.23,1.74-0.47,3.47-0.69,5.21c-0.11,0.88-0.27,1.75-0.31,2.64
		c-0.01,0.12,0,0.24,0.01,0.36c0.05,0.57,0.41,0.9,0.98,0.92c0.83,0.03,1.28-0.32,1.47-1.13c0.24-1.03,0.35-2.08,0.49-3.12
		c0.21-1.53,0.41-3.06,0.61-4.59c0.18-1.34,0.35-2.67,0.52-4.01c0.09-0.69,0.18-1.38,0.26-2.08c0.02-0.2,0.09-0.27,0.31-0.27
		c1.73,0.01,3.46,0.01,5.19,0c0.19,0,0.22,0.05,0.2,0.22c-0.25,1.88-0.49,3.75-0.74,5.63c-0.27,2.04-0.54,4.08-0.81,6.12
		c-0.18,1.34-0.37,2.68-0.84,3.96c-0.71,1.95-1.95,3.4-3.95,4.11c-1.05,0.37-2.14,0.47-3.24,0.49
		C129.82,31.77,129.77,31.77,129.72,31.77z"/>
	<path class="st1" d="M144.18,11.24c0.88,0,1.76,0,2.65,0c0.14,0,0.19,0.02,0.16,0.18c-0.24,1.79-0.47,3.59-0.7,5.38
		c-0.26,1.94-0.52,3.89-0.78,5.83c-0.23,1.75-0.46,3.5-0.69,5.25c-0.14,1.07-0.28,2.13-0.42,3.2c-0.03,0.23-0.11,0.29-0.35,0.3
		c-1.71,0-3.42,0.01-5.12,0.02c-0.19,0-0.22-0.04-0.2-0.23c0.24-1.78,0.48-3.56,0.71-5.34c0.22-1.64,0.43-3.28,0.65-4.92
		c0.2-1.54,0.41-3.07,0.61-4.61c0.19-1.43,0.38-2.85,0.56-4.28c0.03-0.2,0.07-0.4,0.08-0.6c0.01-0.15,0.06-0.18,0.2-0.18
		C142.42,11.24,143.3,11.24,144.18,11.24z"/>
	<path class="st0" d="M36.79,21.68c-0.28-0.07-0.53-0.18-0.8-0.22c-0.69-0.11-1.23,0.13-1.63,0.68c-0.72,1.02-0.96,2.17-0.83,3.4
		c0.01,0.12,0.03,0.24,0.05,0.35c0.16,0.83,0.79,1.26,1.63,1.09c0.29-0.06,0.58-0.14,0.89-0.22c-0.06,0.47-0.11,0.92-0.17,1.38
		c-0.12,0.91-0.25,1.81-0.36,2.72c-0.03,0.21-0.11,0.34-0.32,0.42c-0.94,0.36-1.91,0.56-2.93,0.51c-2.24-0.11-4.09-1.79-4.4-4.01
		c-0.15-1.03-0.22-2.07-0.12-3.11c0.22-2.35,1.05-4.43,2.72-6.13c0.95-0.96,2.14-1.48,3.48-1.64c1.07-0.13,2.1-0.04,3.1,0.39
		c0.2,0.08,0.24,0.19,0.22,0.39c-0.17,1.24-0.33,2.48-0.5,3.71C36.82,21.49,36.8,21.58,36.79,21.68z"/>
	<path class="st0" d="M11.62,22.35c1.14-0.5,2.13-1.2,2.84-2.25c0.87-1.29,1.14-2.72,1.01-4.25c-0.12-1.51-0.81-2.69-2.07-3.54
		c-1.13-0.76-2.4-1.04-3.74-1.06c-1.25-0.02-2.51-0.01-3.76-0.02c-1.01,0-2.03,0-3.04,0.01c-0.09,0-0.2-0.04-0.21,0.12
		c-0.03,0.32-0.08,0.64-0.12,0.96C2.35,13.63,2.18,14.95,2,16.28c-0.19,1.43-0.38,2.85-0.57,4.27c-0.2,1.54-0.4,3.07-0.61,4.61
		c-0.22,1.66-0.44,3.32-0.66,4.98C0.12,30.47,0.12,30.8,0,31.12c0,0.08,0,0.17,0,0.25c0.02,0,0.04,0.01,0.06,0.01
		c1.81,0,3.63,0,5.44,0c0.13,0,0.16-0.05,0.18-0.17c0.05-0.44,0.11-0.89,0.17-1.33c0.26-1.97,0.53-3.94,0.79-5.91
		c0.01-0.04,0-0.09,0.07-0.1c0.02,0.05,0.04,0.1,0.05,0.15c0.46,2.38,0.93,4.75,1.39,7.13c0.03,0.17,0.08,0.23,0.26,0.22
		c1.84-0.01,3.68-0.01,5.52-0.01c0.25,0,0.25,0,0.18-0.24c-0.88-2.81-1.77-5.61-2.66-8.42C11.37,22.49,11.43,22.43,11.62,22.35z
		 M9.67,17.28c0,0.62-0.09,1.23-0.39,1.78c-0.43,0.78-1.1,1.13-1.99,1.12c-0.12,0-0.15-0.04-0.14-0.16c0.2-1.47,0.39-2.94,0.58-4.42
		c0.02-0.13,0.08-0.15,0.19-0.16c1.02-0.09,1.71,0.53,1.74,1.55C9.67,17.08,9.67,17.18,9.67,17.28z"/>
	<path class="st1" d="M122.07,25.68c0.91-2.35,1.23-4.8,1.25-7.3c0.01-1.36-0.2-2.68-0.72-3.95c-0.6-1.47-1.59-2.58-3.1-3.17
		c-1.02-0.39-2.08-0.47-3.16-0.4c-1.8,0.12-3.35,0.79-4.66,2.03c-1.43,1.35-2.31,3.03-2.89,4.88c-0.6,1.9-0.9,3.86-0.96,5.85
		c-0.04,1.47,0.1,2.92,0.62,4.31c0.55,1.47,1.47,2.62,2.92,3.3c0.89,0.42,1.84,0.55,2.82,0.52c0.48-0.01,0.83,0.18,1.06,0.61
		c0.4,0.74,0.87,1.43,1.31,2.14c0.07,0.12,0.13,0.14,0.26,0.08c0.79-0.36,1.58-0.71,2.37-1.07c0.76-0.34,1.51-0.68,2.29-1.02
		c-0.08-0.09-0.14-0.17-0.21-0.25c-0.61-0.73-1.22-1.46-1.83-2.19c-0.09-0.1-0.08-0.16,0.01-0.25
		C120.64,28.63,121.48,27.23,122.07,25.68z M116.73,24.83c-0.15,0.5-0.36,0.97-0.74,1.34c-0.26,0.25-0.56,0.43-0.92,0.46
		c-0.7,0.06-1.24-0.34-1.41-1.04c-0.17-0.69-0.15-1.39-0.12-2.08c0.08-1.45,0.24-2.89,0.54-4.32c0.21-0.98,0.46-1.93,0.99-2.8
		c0.42-0.68,1.44-0.79,1.95-0.48c0.2,0.12,0.35,0.29,0.42,0.51c0.18,0.55,0.24,1.12,0.29,1.6
		C117.59,20.37,117.37,22.63,116.73,24.83z"/>
	<path class="st1" d="M106.9,31.19c-0.08-0.83-0.15-1.66-0.22-2.48c-0.18-2.01-0.35-4.02-0.53-6.03c-0.15-1.7-0.29-3.4-0.44-5.09
		c-0.18-2.06-0.36-4.12-0.53-6.18c-0.01-0.14-0.05-0.19-0.2-0.19c-0.98,0.01-1.96,0-2.94,0c0,0,0,0,0,0c-0.92,0-1.85,0-2.77,0
		c-0.46,0-0.49,0.03-0.65,0.46c-0.89,2.53-1.78,5.06-2.67,7.59c-1.39,3.96-2.78,7.92-4.17,11.88c-0.08,0.24-0.08,0.24,0.16,0.24
		c1.6,0,3.21,0,4.81,0.01c0.39,0,0.51-0.09,0.6-0.47c0.19-0.77,0.41-1.53,0.63-2.3c0.04-0.13,0.08-0.19,0.24-0.19
		c0.99,0.01,1.97,0.01,2.96,0c0.16,0,0.21,0.04,0.21,0.21c-0.01,0.85,0,1.69-0.01,2.54c0,0.12,0.01,0.18,0.16,0.18
		c1.73-0.01,3.46-0.01,5.19,0C106.88,31.37,106.91,31.33,106.9,31.19z M101.15,24.33c-0.61-0.01-1.22-0.01-1.83,0
		c-0.12,0-0.18,0-0.14-0.16c0.65-2.3,1.29-4.6,1.94-6.91c0.01-0.04,0.03-0.08,0.05-0.13c0.07,0.06,0.05,0.11,0.05,0.16
		c0.04,2.27,0.09,4.54,0.14,6.81C101.36,24.27,101.34,24.33,101.15,24.33z"/>
	<path class="st0" d="M58.06,17.24c-1.57,0.01-3.14,0.01-4.7,0c-0.19,0-0.24,0.06-0.26,0.23c-0.05,0.4-0.12,0.81-0.18,1.26
		c-0.11-0.16-0.2-0.27-0.28-0.39c-0.85-1.17-2-1.65-3.44-1.43c-1.1,0.17-1.97,0.74-2.68,1.58c-0.74,0.88-1.22,1.9-1.56,2.99
		c-0.57,1.82-0.8,3.68-0.75,5.58c0.02,0.88,0.18,1.75,0.53,2.57c0.49,1.14,1.27,1.93,2.54,2.12c1.14,0.17,2.16-0.13,3.07-0.83
		c0.38-0.29,0.71-0.63,1.1-0.98c-0.06,0.44-0.1,0.83-0.16,1.23c-0.03,0.17,0.01,0.22,0.19,0.22c1.12-0.01,2.24,0,3.36,0
		c0.46,0,0.92,0,1.39,0c0.12,0,0.19-0.01,0.2-0.16c0.04-0.4,0.1-0.8,0.16-1.2c0.17-1.31,0.35-2.63,0.52-3.94
		c0.19-1.43,0.38-2.85,0.57-4.28c0.19-1.45,0.38-2.89,0.58-4.34C58.27,17.28,58.23,17.24,58.06,17.24z M52.12,23.99
		c-0.09,0.79-0.21,1.56-0.54,2.29c-0.13,0.28-0.28,0.55-0.51,0.76c-0.51,0.5-1.19,0.35-1.43-0.33c-0.14-0.39-0.16-0.81-0.16-1.19
		c0.02-1.08,0.16-2.11,0.55-3.1c0.11-0.29,0.26-0.56,0.46-0.79c0.23-0.27,0.51-0.43,0.87-0.36c0.36,0.07,0.55,0.33,0.65,0.67
		C52.21,22.62,52.19,23.3,52.12,23.99z"/>
	<path class="st0" d="M91.53,20.5c-0.35-1.65-1.28-2.78-2.9-3.3c-1.36-0.44-2.74-0.46-4.12-0.18c-1.4,0.28-2.55,0.97-3.45,2.08
		c-0.84,1.04-1.42,2.22-1.79,3.5c-0.5,1.71-0.53,3.45-0.25,5.21c0.29,1.81,1.3,3.04,3.03,3.65c1.03,0.36,2.1,0.38,3.17,0.25
		c1.56-0.19,2.91-0.81,4.02-1.94c0.87-0.89,1.4-1.97,1.75-3.15c0.05-0.16,0.02-0.19-0.15-0.19c-1.29,0.01-2.58,0.01-3.86,0
		c-0.17,0-0.28,0.07-0.35,0.21c-0.13,0.23-0.25,0.45-0.38,0.67c-0.21,0.35-0.5,0.61-0.92,0.67c-0.76,0.12-1.45-0.18-1.47-1.15
		c-0.01-0.5,0.02-0.99,0.03-1.49c0-0.37,0.1-0.43,0.45-0.43c1.13,0,2.27,0,3.4,0c0,0,0,0,0,0c1.15,0,2.31,0,3.46,0
		c0.17,0,0.24-0.06,0.26-0.22c0.03-0.2,0.07-0.4,0.1-0.6C91.72,22.9,91.78,21.7,91.53,20.5z M87.24,22.31
		c0,0.18-0.13,0.21-0.28,0.21c-0.45,0-0.9,0-1.34,0c-0.44,0-0.88,0-1.32,0c-0.12,0-0.15-0.02-0.1-0.14
		c0.22-0.48,0.42-0.98,0.68-1.44c0.16-0.28,0.38-0.5,0.66-0.66c0.73-0.41,1.51-0.03,1.65,0.79C87.26,21.49,87.24,21.9,87.24,22.31z"
		/>
	<path class="st0" d="M27.34,20.5c-0.38-1.81-1.43-2.99-3.27-3.4c-1.05-0.24-2.1-0.31-3.17-0.2c-1.37,0.15-2.58,0.68-3.56,1.66
		c-1.14,1.15-1.86,2.54-2.31,4.08c-0.51,1.75-0.52,3.53-0.2,5.31c0.33,1.85,1.43,3.05,3.24,3.57c1.14,0.33,2.29,0.34,3.45,0.1
		c1.81-0.37,3.27-1.27,4.28-2.84c0.41-0.64,0.71-1.33,0.93-2.05c0.09-0.3,0.09-0.3-0.24-0.3c-1.22,0-2.44,0.01-3.65,0
		c-0.25,0-0.39,0.1-0.48,0.32c-0.07,0.18-0.16,0.35-0.27,0.52c-0.19,0.29-0.44,0.52-0.77,0.65c-0.78,0.32-1.52-0.08-1.67-0.92
		c-0.11-0.61-0.04-1.21,0.02-1.81c0.02-0.23,0.11-0.27,0.32-0.27c1.15,0.01,2.31,0.01,3.46,0.01c1.19,0,2.38,0,3.57,0
		c0.16,0,0.21-0.05,0.22-0.19c0.03-0.25,0.08-0.5,0.11-0.75C27.53,22.82,27.58,21.66,27.34,20.5z M23.06,22.26
		c-0.01,0.14-0.09,0.25-0.23,0.25c-0.92,0.01-1.84,0-2.78,0c0.19-0.7,0.41-1.36,0.87-1.92c0.3-0.35,0.68-0.53,1.15-0.45
		c0.59,0.1,0.89,0.44,0.98,1.09C23.1,21.58,23.09,21.92,23.06,22.26z"/>
</g>
</svg>
