<svg xmlns="http://www.w3.org/2000/svg" xmlns:xlink="http://www.w3.org/1999/xlink" width="500" zoomAndPan="magnify" viewBox="0 0 375 97.5" height="130" preserveAspectRatio="xMidYMid meet" version="1.0"><defs><g/></defs><g fill="#000000" fill-opacity="1"><g transform="translate(10.656887, 72.798544)"><g><path d="M 53.625 0 L 40.34375 0 L 18.109375 -33.65625 L 18.109375 0 L 4.8125 0 L 4.8125 -54.5625 L 18.109375 -54.5625 L 40.34375 -20.75 L 40.34375 -54.5625 L 53.625 -54.5625 Z M 53.625 0 "/></g></g></g><g fill="#000000" fill-opacity="1"><g transform="translate(69.101053, 72.798544)"><g><path d="M 18.109375 -43.90625 L 18.109375 -32.875 L 35.90625 -32.875 L 35.90625 -22.609375 L 18.109375 -22.609375 L 18.109375 -10.640625 L 38.234375 -10.640625 L 38.234375 0 L 4.8125 0 L 4.8125 -54.5625 L 38.234375 -54.5625 L 38.234375 -43.90625 Z M 18.109375 -43.90625 "/></g></g></g><g fill="#000000" fill-opacity="1"><g transform="translate(111.14666, 72.798544)"><g><path d="M 38.234375 0 L 27.125 -16.703125 L 17.328125 0 L 2.25 0 L 19.734375 -27.75 L 1.859375 -54.5625 L 17.328125 -54.5625 L 28.296875 -38.078125 L 37.921875 -54.5625 L 53 -54.5625 L 35.671875 -27.046875 L 53.703125 0 Z M 38.234375 0 "/></g></g></g><g fill="#000000" fill-opacity="1"><g transform="translate(166.715243, 72.798544)"><g><path d="M 44.0625 -54.5625 L 44.0625 -43.90625 L 29.609375 -43.90625 L 29.609375 0 L 16.328125 0 L 16.328125 -43.90625 L 1.859375 -43.90625 L 1.859375 -54.5625 Z M 44.0625 -54.5625 "/></g></g></g><g fill="#000000" fill-opacity="1"><g transform="translate(212.655704, 72.798544)"><g><path d="M 3.34375 -27.125 C 3.34375 -32.40625 4.53125 -37.15625 6.90625 -41.375 C 9.289062 -45.601562 12.539062 -48.910156 16.65625 -51.296875 C 20.78125 -53.679688 25.359375 -54.875 30.390625 -54.875 C 36.296875 -54.875 41.445312 -53.445312 45.84375 -50.59375 C 50.25 -47.75 53.460938 -43.707031 55.484375 -38.46875 L 47.015625 -38.46875 C 45.515625 -41.726562 43.351562 -44.238281 40.53125 -46 C 37.707031 -47.769531 34.328125 -48.65625 30.390625 -48.65625 C 26.609375 -48.65625 23.210938 -47.769531 20.203125 -46 C 17.203125 -44.238281 14.84375 -41.738281 13.125 -38.5 C 11.414062 -35.269531 10.5625 -31.476562 10.5625 -27.125 C 10.5625 -22.820312 11.414062 -19.050781 13.125 -15.8125 C 14.84375 -12.570312 17.203125 -10.070312 20.203125 -8.3125 C 23.210938 -6.550781 26.609375 -5.671875 30.390625 -5.671875 C 34.328125 -5.671875 37.707031 -6.535156 40.53125 -8.265625 C 43.351562 -10.003906 45.515625 -12.507812 47.015625 -15.78125 L 55.484375 -15.78125 C 53.460938 -10.59375 50.25 -6.585938 45.84375 -3.765625 C 41.445312 -0.941406 36.296875 0.46875 30.390625 0.46875 C 25.359375 0.46875 20.78125 -0.707031 16.65625 -3.0625 C 12.539062 -5.425781 9.289062 -8.707031 6.90625 -12.90625 C 4.53125 -17.101562 3.34375 -21.84375 3.34375 -27.125 Z M 3.34375 -27.125 "/></g></g></g><g fill="#000000" fill-opacity="1"><g transform="translate(272.654232, 72.798544)"><g><path d="M 3.34375 -21.453125 C 3.34375 -25.804688 4.222656 -29.625 5.984375 -32.90625 C 7.742188 -36.195312 10.164062 -38.75 13.25 -40.5625 C 16.332031 -42.382812 19.765625 -43.296875 23.546875 -43.296875 C 27.273438 -43.296875 30.507812 -42.488281 33.25 -40.875 C 36 -39.269531 38.050781 -37.25 39.40625 -34.8125 L 39.40625 -42.59375 L 46.546875 -42.59375 L 46.546875 0 L 39.40625 0 L 39.40625 -7.921875 C 38.007812 -5.441406 35.921875 -3.382812 33.140625 -1.75 C 30.367188 -0.113281 27.144531 0.703125 23.46875 0.703125 C 19.6875 0.703125 16.265625 -0.226562 13.203125 -2.09375 C 10.148438 -3.957031 7.742188 -6.570312 5.984375 -9.9375 C 4.222656 -13.3125 3.34375 -17.148438 3.34375 -21.453125 Z M 39.40625 -21.375 C 39.40625 -24.582031 38.753906 -27.378906 37.453125 -29.765625 C 36.160156 -32.148438 34.410156 -33.976562 32.203125 -35.25 C 30.003906 -36.519531 27.585938 -37.15625 24.953125 -37.15625 C 22.304688 -37.15625 19.894531 -36.53125 17.71875 -35.28125 C 15.539062 -34.039062 13.800781 -32.226562 12.5 -29.84375 C 11.207031 -27.457031 10.5625 -24.660156 10.5625 -21.453125 C 10.5625 -18.179688 11.207031 -15.34375 12.5 -12.9375 C 13.800781 -10.53125 15.539062 -8.691406 17.71875 -7.421875 C 19.894531 -6.148438 22.304688 -5.515625 24.953125 -5.515625 C 27.585938 -5.515625 30.003906 -6.148438 32.203125 -7.421875 C 34.410156 -8.691406 36.160156 -10.53125 37.453125 -12.9375 C 38.753906 -15.34375 39.40625 -18.15625 39.40625 -21.375 Z M 39.40625 -21.375 "/></g></g></g><g fill="#000000" fill-opacity="1"><g transform="translate(325.191806, 72.798544)"><g><path d="M 13.0625 -35.671875 C 14.300781 -38.109375 16.070312 -40 18.375 -41.34375 C 20.6875 -42.6875 23.5 -43.359375 26.8125 -43.359375 L 26.8125 -36.0625 L 24.953125 -36.0625 C 17.023438 -36.0625 13.0625 -31.757812 13.0625 -23.15625 L 13.0625 0 L 5.984375 0 L 5.984375 -42.59375 L 13.0625 -42.59375 Z M 13.0625 -35.671875 "/></g></g></g></svg>